 <svg xmlns="http://www.w3.org/2000/svg" viewBox="0 0 32 32" width="32" height="32" class="icon">
    <path fill="#f7931a" style="fill: var(--color4, #f7931a)" d="M31.517 19.871c-2.138 8.571-10.819 13.787-19.392 11.651-8.568-2.138-13.786-10.819-11.648-19.389 2.138-8.573 10.819-13.789 19.389-11.653s13.788 10.82 11.651 19.392z"></path>
    <path fill="#fff" style="fill: var(--color3, #fff)" d="M23.053 13.72c0.317-2.129-1.303-3.273-3.52-4.037l0.719-2.884-1.756-0.436-0.7 2.808c-0.461-0.115-0.934-0.224-1.405-0.332l0.705-2.826-1.755-0.438-0.719 2.883c-0.381-0.087-0.756-0.173-1.121-0.264l0.003-0.009-2.42-0.604-0.467 1.875s1.303 0.298 1.275 0.317c0.71 0.178 0.84 0.648 0.818 1.021l-0.819 3.286c0.073 0.019 0.134 0.039 0.193 0.063l-0.010-0.004-0.186-0.046-1.148 4.603c-0.087 0.216-0.307 0.54-0.805 0.417 0.018 0.026-1.276-0.319-1.276-0.319l-0.872 2.010 2.285 0.57c0.425 0.106 0.841 0.218 1.251 0.323l-0.727 2.917 1.754 0.438 0.721-2.886c0.479 0.131 0.943 0.25 1.399 0.364l-0.717 2.872 1.755 0.438 0.727-2.912c2.994 0.567 5.245 0.338 6.191-2.369 0.763-2.18-0.037-3.438-1.613-4.259 1.148-0.266 2.012-1.020 2.243-2.579zM19.041 19.346c-0.543 2.18-4.212 1.002-5.403 0.707l0.964-3.864c1.19 0.296 5.005 0.883 4.439 3.158zM19.584 13.69c-0.495 1.983-3.549 0.975-4.541 0.728l0.874-3.505c0.991 0.247 4.183 0.708 3.667 2.776z"></path>
</svg>
