<svg xmlns="http://www.w3.org/2000/svg" viewBox="0 0 2993.96 532.11"><path d="M723.72,390.42H814a185.18,185.18,0,0,1-21.83,52.94,191.2,191.2,0,0,1-38,45.27,180.26,180.26,0,0,1-51.74,31.53,165.16,165.16,0,0,1-62.28,11.75,173.76,173.76,0,0,1-71.58-15,191.42,191.42,0,0,1-59-40.83,196.55,196.55,0,0,1-40.41-60.25q-15-34.34-15-73.94t15-74a196.43,196.43,0,0,1,40.41-60.25,191.94,191.94,0,0,1,59-40.83,173.6,173.6,0,0,1,71.58-15,165.35,165.35,0,0,1,62.28,11.74,180.29,180.29,0,0,1,51.74,31.54,191.2,191.2,0,0,1,38,45.27A185.18,185.18,0,0,1,814,293.36H723.76a95.54,95.54,0,0,0-15.12-19.84.25.25,0,0,0-.09-.14,97.43,97.43,0,0,0-141,2.09l0,0a97.5,97.5,0,0,0,0,132.75l0,.05a97.44,97.44,0,0,0,144.13-1.2A95.89,95.89,0,0,0,723.72,390.42Z" class="cls-1"></path><path d="M1188.51,267.93a196.43,196.43,0,0,0-40.41-60.25,191.56,191.56,0,0,0-59-40.83,178.39,178.39,0,0,0-143.11,0,191.94,191.94,0,0,0-59,40.83,196.43,196.43,0,0,0-40.41,60.25q-15,34.33-15,74t15,73.94a196.55,196.55,0,0,0,40.41,60.25,191.42,191.42,0,0,0,59,40.83,178.39,178.39,0,0,0,143.11,0,191.05,191.05,0,0,0,59-40.83,196.55,196.55,0,0,0,40.41-60.25q15-34.34,15-73.94T1188.51,267.93ZM1098,396.43s0,0,0,0a97.56,97.56,0,0,1-160.82,0s0,0-.05,0a97.66,97.66,0,1,1,160.92,0Z" class="cls-1"></path><path d="M1287.15,105.11q-21,0-36.79-15.76T1234.6,52.56q0-21,15.76-36.79T1287.15,0q21,0,36.78,15.77t15.77,36.79q0,21-15.77,36.79T1287.15,105.11Zm44.47,420.45h-93V153.62h93Z" class="cls-1"></path><path d="M1583.69,152.78q33.13,0,60.64,10.92a132.58,132.58,0,0,1,47.31,31.54q19.8,20.63,30.71,49.73t10.92,65.48V528.76h-93V322.58q0-36.37-21.43-58.61t-55.38-22.24q-34,0-55.39,22.24t-21.42,58.61V528.76h-93V156.83h68.73l16.17,36.39A193.66,193.66,0,0,1,1508.5,173a228.23,228.23,0,0,1,32.75-13.74Q1560.24,152.78,1583.69,152.78Z" class="cls-1"></path><path d="M1822.3,64.81h80.85v88.94H1984v84.9h-80.85V392.27q0,24.25,14.15,38.41t38.41,14.15c4.3,0,7.8-.12,10.51-.4a49.67,49.67,0,0,0,7.27-1.23,31,31,0,0,0,6.48-2.42v80.86a72.32,72.32,0,0,1-12.94,4,112.08,112.08,0,0,1-31.54,4.05q-27.49,0-50.53-9.3a109.36,109.36,0,0,1-39.63-27.09,128,128,0,0,1-25.86-42q-9.32-24.26-9.3-55V238.65h-56.6V161.84h24.26q44.46,0,44.47-44.48Z" class="cls-1"></path><path d="M2211.67,152.31a68.37,68.37,0,0,1,11.31.82c3.23.55,6.2,1.08,8.9,1.61s5.39,1.08,8.08,1.62v97c-2.69-.53-5.66-1.07-8.89-1.61-2.7-.54-6.06-1.07-10.11-1.62a103.1,103.1,0,0,0-13.34-.8q-34,0-55.39,22.23t-21.42,58.62V528.29h-93V156.36h68.73l16.17,40.43A113.67,113.67,0,0,1,2146.18,175a118.53,118.53,0,0,1,27.88-15.77Q2190.64,152.32,2211.67,152.31Z" class="cls-1"></path><path d="M2591.67,414.87q-7.29,21-22.23,42a177.78,177.78,0,0,1-36.39,37.61,192.54,192.54,0,0,1-48.51,27.08,161,161,0,0,1-58.61,10.51,173.6,173.6,0,0,1-71.57-15,191.57,191.57,0,0,1-59-40.84,197.31,197.31,0,0,1-40.42-60.24q-15-34.36-14.95-74t14.95-74a197.31,197.31,0,0,1,40.42-60.24,191.54,191.54,0,0,1,59-40.83,178.56,178.56,0,0,1,140.28-1.22,171.05,171.05,0,0,1,56.6,38.81q24.26,25.08,38.41,60.24t14.15,77.22a94.67,94.67,0,0,1-.81,12.53c-.54,4.05-1.08,7.95-1.61,11.73-.55,4.32-1.09,8.35-1.63,12.12H2341a86.35,86.35,0,0,0,27.49,46.09q21,18.6,57.41,18.59,18.57,0,31.12-4a92.23,92.23,0,0,0,21.42-9.72,70.71,70.71,0,0,0,16.17-14.54ZM2425.93,241q-36.41,0-59.44,21A94.83,94.83,0,0,0,2337,313.8h177.88a94.89,94.89,0,0,0-29.51-51.75Q2462.3,241,2425.93,241Z" class="cls-1"></path><path d="M2981.84,414.64q-7.31,21-22.24,42.05a178,178,0,0,1-36.39,37.6,192.54,192.54,0,0,1-48.51,27.08,160.84,160.84,0,0,1-58.61,10.51,173.75,173.75,0,0,1-71.57-15,191.6,191.6,0,0,1-59-40.85,197.39,197.39,0,0,1-40.42-60.23q-15-34.37-15-74t15-74a197.31,197.31,0,0,1,40.42-60.24,191.54,191.54,0,0,1,59-40.83,178.62,178.62,0,0,1,140.28-1.21,171,171,0,0,1,56.6,38.8q24.26,25.08,38.41,60.24T2994,341.87a94.44,94.44,0,0,1-.81,12.53q-.81,6.08-1.61,11.73c-.55,4.32-1.09,8.35-1.63,12.13H2731.19a86.39,86.39,0,0,0,27.49,46.09q21,18.58,57.41,18.59,18.57,0,31.12-4a92.64,92.64,0,0,0,21.42-9.71,70.74,70.74,0,0,0,16.17-14.55ZM2816.09,240.8q-36.4,0-59.44,21a94.9,94.9,0,0,0-29.51,51.75H2905a95,95,0,0,0-29.51-51.75Q2852.46,240.81,2816.09,240.8Z" class="cls-1"></path><path d="M380.53,151.58v190.9a188.75,188.75,0,0,1-54.8,133.21,186.27,186.27,0,0,1-26.52,22.39,188.44,188.44,0,0,1-78.88,31.73,192.83,192.83,0,0,1-29.42,2.3H0V341.47A195.56,195.56,0,0,1,2.3,311.7a189.61,189.61,0,0,1,31.86-78.81,198.94,198.94,0,0,1,22.33-26.52,189.13,189.13,0,0,1,133.4-54.79Z" class="cls-2"></path><path d="M325.74,475.69a189.06,189.06,0,0,1-105.4,54.12,193.06,193.06,0,0,1-29.43,2.3H0V341.47A196.84,196.84,0,0,1,2.3,311.7a189.63,189.63,0,0,1,31.87-78.81,199.62,199.62,0,0,1,22.32-26.52C193.82,230,302.13,338.36,325.74,475.69Z" class="cls-3"></path><path d="M220.33,529.79A183.42,183.42,0,0,1,195,532c-1.36.07-2.71.07-4.06.07H0V341.45c0-1.42,0-2.9.07-4.32A195.07,195.07,0,0,1,2.3,311.69C122.18,312.91,219.12,409.92,220.33,529.79Z" class="cls-4"></path></svg>
